#!OML:ASF H:\Terrain\Patient Classification 1\Walking\liu\liu.ASF
:FULLY-SPECIFIED
:DEGREES
221
root 9.87166 16.9534 9.23987 8.34146 -0.223183 2.55773
lowerback -3.14026 -0.587188 -4.88591
upperback -0.381933 -0.635476 1.36348
thorax 1.4374 -0.348702 4.12335
lowerneck -17.7728 -4.43823 -13.2092
upperneck 19.848 -5.75232 13.9015
head 10.0505 -2.15678 6.38693
rclavicle 1.33186e-014 -1.74931e-014
rhumerus -41.61 16.021 -86.7196
rradius 36.0232
rwrist -20.7226
rhand -33.5075 -26.1715
rfingers 7.12502
rthumb -6.70413 -56.0453
lclavicle 1.33186e-014 -1.74931e-014
lhumerus -29.641 -16.3846 90.7249
lradius 33.1953
lwrist 8.37664
lhand -12.8787 -25.2454
lfingers 7.12502
lthumb 13.2101 4.31608
rfemur -32.7156 -1.5608 17.5621
rtibia 67.0867
rfoot -15.7414 -8.43613
rtoes -20.2404
lfemur -22.1187 4.22921 -28.1734
ltibia 33.268
lfoot -18.7241 1.67559
ltoes 0.441053
222
root 9.87915 16.9554 9.41137 8.27228 0.356513 2.53336
lowerback -3.0439 -0.902604 -4.86899
upperback -0.354332 -1.06309 1.48917
thorax 1.46006 -0.564125 4.22539
lowerneck -17.8934 -4.31822 -13.2125
upperneck 19.9827 -5.57377 13.8776
head 10.0915 -2.07313 6.41096
rclavicle -7.60351e-015 7.55382e-015
rhumerus -42.1346 15.8881 -86.5496
rradius 35.5376
rwrist -21.3342
rhand -31.9231 -30.1835
rfingers 7.12502
rthumb -5.17446 -60.1004
lclavicle -7.60351e-015 7.55382e-015
lhumerus -28.5915 -17.4276 90.7177
lradius 33.5831
lwrist 9.80048
lhand -13.5115 -25.6085
lfingers 7.12502
lthumb 12.6001 3.99145
rfemur -33.6388 -1.56907 17.7083
rtibia 65.7747
rfoot -16.6341 -8.6892
rtoes -20.5883
lfemur -21.0911 3.87877 -28.1177
ltibia 32.8764
lfoot -19.2771 1.75523
ltoes -0.35629
223
root 9.87884 16.9576 9.59132 8.16227 0.785507 2.57937
lowerback -3.16941 -1.13072 -5.02281
upperback -0.152344 -1.35469 1.58851
thorax 1.77711 -0.724594 4.39782
lowerneck -17.9143 -4.24337 -13.2784
upperneck 19.8202 -5.43303 13.891
head 10.0178 -2.01088 6.44118
rclavicle 1.09332e-015 -2.38542e-015
rhumerus -42.4647 15.2084 -86.0568
rradius 35.0568
rwrist -21.1919
rhand -31.2037 -33.7529
rfingers 7.12502
rthumb -4.47982 -63.6855
lclavicle 1.09332e-015 -2.38542e-015
lhumerus -27.2606 -18.3846 90.5568
lradius 33.9433
lwrist 10.9307
lhand -13.8063 -25.7136
lfingers 7.12502
lthumb 12.3159 3.9037
rfemur -34.5087 -1.3622 17.755
rtibia 64.423
rfoot -17.3021 -9.18795
rtoes -21.4165
lfemur -19.8863 3.63704 -28.0914
ltibia 32.2348
lfoot -19.7043 1.5542
ltoes -0.340509
224
root 9.8619 16.9504 9.7335 8.48017 1.38773 1.62738
lowerback -3.11419 -1.3367 -4.21726
upperback -0.365398 -1.66802 1.89771
thorax 1.548 -0.866311 4.25066
lowerneck -17.5848 -4.14137 -13.1433
upperneck 19.6932 -5.33968 13.8243
head 9.88924 -1.97543 6.39885
rclavicle 5.96354e-016 2.10712e-014
rhumerus -43 14.1751 -85.4184
rradius 34.4917
rwrist -19.5394
rhand -29.7207 -30.5859
rfingers 7.12502
rthumb -3.04769 -60.5439
lclavicle 5.96354e-016 2.10712e-014
lhumerus -26.0845 -19.33 90.1616
lradius 34.0174
lwrist 11.2316
lhand -13.0107 -25.1348
lfingers 7.12502
lthumb 13.0828 4.43489
rfemur -35.9973 -0.719266 18.9735
rtibia 62.9549
rfoot -18.0715 -10.1139
rtoes -18.8095
lfemur -19.4281 3.39368 -26.9073
ltibia 31.5233
lfoot -19.5962 1.40624
ltoes -0.287275
225
root 9.88182 16.9605 9.92603 8.22783 2.03291 2.44762
lowerback -2.94197 -1.62189 -4.69095
upperback -0.39603 -2.03501 1.55297
thorax 1.46243 -1.0487 4.14675
lowerneck -17.2402 -4.03487 -12.9955
upperneck 19.7271 -5.30331 13.9369
head 9.82884 -1.94732 6.42074
rclavicle 3.8266e-015 -3.97569e-016
rhumerus -43.9961 13.8165 -85.6134
rradius 34.2879
rwrist -20.5922
rhand -30.7965 -25.7264
rfingers 7.12502
rthumb -4.08659 -55.6669
lclavicle 3.8266e-015 -3.97569e-016
lhumerus -25.043 -20.1511 89.6538
lradius 34.0147
lwrist 11.0456
lhand -11.8616 -24.8888
lfingers 7.12502
lthumb 14.1903 4.60649
rfemur -36.3196 -1.29792 17.9322
rtibia 61.5284
rfoot -19.3378 -9.41193
rtoes -16.3455
lfemur -17.6794 3.06861 -27.8149
ltibia 30.5305
lfoot -19.8638 1.25734
ltoes -0.154997
226
root 9.88459 16.9783 10.1239 8.08335 2.29783 2.95783
lowerback -2.99212 -1.80771 -5.20859
upperback -0.306805 -2.2602 1.42563
thorax 1.62176 -1.17029 4.29228
lowerneck -17.3424 -3.96495 -13.0984
upperneck 19.8552 -5.24213 14.2116
head 9.89459 -1.89482 6.55779
rclavicle 2.39039e-014 -2.38542e-015
rhumerus -44.647 13.2952 -85.3063
rradius 33.9989
rwrist -20.5542
rhand -30.3829 -24.446
rfingers 7.12502
rthumb -3.68725 -54.3938
lclavicle 2.39039e-014 -2.38542e-015
lhumerus -23.7833 -20.658 89.137
lradius 33.9961
lwrist 10.5553
lhand -11.3884 -25.3101
lfingers 7.12502
lthumb 14.6464 4.15263
rfemur -36.8768 -1.10546 17.33
rtibia 59.9179
rfoot -20.073 -9.10255
rtoes -15.524
lfemur -16.1803 2.839 -28.2678
ltibia 29.5288
lfoot -20.0534 1.20808
ltoes 0.0407244
227
root 9.88123 16.9947 10.292 8.11785 2.84108 3.03162
lowerback -2.91714 -2.07117 -5.39014
upperback -0.248633 -2.61082 1.54295
thorax 1.69346 -1.35098 4.49922
lowerneck -17.7138 -3.93771 -13.3603
upperneck 20.0137 -5.14773 14.4121
head 10.0193 -1.83776 6.7035
rclavicle 2.41523e-014 5.96354e-015
rhumerus -45.3588 13.5038 -85.131
rradius 34.1471
rwrist -20.7762
rhand -30.7154 -23.8724
rfingers 7.12502
rthumb -4.00829 -53.8145
lclavicle 2.41523e-014 5.96354e-015
lhumerus -22.4122 -21.4999 88.7367
lradius 34.0579
lwrist 10.6737
lhand -11.3361 -25.6721
lfingers 7.12502
lthumb 14.6967 3.78701
rfemur -37.7786 -0.743293 17.1589
rtibia 58.1435
rfoot -20.3028 -9.75232
rtoes -15.6632
lfemur -14.865 2.47783 -28.2003
ltibia 28.1575
lfoot -19.7695 1.16523
ltoes -0.0915938
228
root 9.88036 17.0083 10.4727 8.0497 3.35309 2.87427
lowerback -2.97045 -2.30843 -5.31091
upperback -0.0772424 -2.92735 1.69508
thorax 1.94233 -1.52065 4.58905
lowerneck -18.2772 -3.93761 -13.2133
upperneck 20.2863 -5.08311 14.1477
head 10.2009 -1.80549 6.60216
rclavicle -1.40143e-014 7.95139e-016
rhumerus -45.777 13.7004 -85.0084
rradius 34.0031
rwrist -20.9878
rhand -30.0992 -24.5589
rfingers 7.12502
rthumb -3.4133 -54.5113
lclavicle -1.40143e-014 7.95139e-016
lhumerus -21.0482 -22.6137 88.3759
lradius 34.2253
lwrist 11.5296
lhand -11.4147 -25.6035
lfingers 7.12502
lthumb 14.621 3.86107
rfemur -38.3917 -0.208656 17.101
rtibia 56.1858
rfoot -20.5063 -10.5035
rtoes -16.2496
lfemur -13.4916 2.20965 -27.897
ltibia 26.9307
lfoot -19.8126 1.17748
ltoes -1.01236
229
root 9.88237 17.0103 10.6659 8.04002 3.64592 3.00176
lowerback -3.11334 -2.53184 -5.47931
upperback -0.0324497 -3.2111 1.68523
thorax 2.11187 -1.66998 4.64941
lowerneck -18.3806 -3.8297 -12.8176
upperneck 20.3902 -4.96947 13.8409
head 10.2192 -1.75144 6.43691
rclavicle 3.18055e-015 1.59028e-014
rhumerus -46.2668 13.2228 -84.6779
rradius 33.4748
rwrist -20.338
rhand -27.3688 -27.6295
rfingers 7.12502
rthumb -0.776296 -57.6078
lclavicle 3.18055e-015 1.59028e-014
lhumerus -19.9552 -23.5326 87.9496
lradius 34.2861
lwrist 11.85
lhand -12.0883 -25.4145
lfingers 7.12502
lthumb 13.9719 4.09602
rfemur -38.9354 0.0901145 16.8272
rtibia 54.1445
rfoot -20.349 -10.9359
rtoes -17.9738
lfemur -12.1559 1.9818 -27.9399
ltibia 25.7896
lfoot -20.0698 1.23568
ltoes -2.35018
230
root 9.88414 17.0018 10.8437 8.04887 4.2083 3.40221
lowerback -2.92558 -2.82969 -5.83406
upperback -0.211856 -3.60816 1.58918
thorax 1.88536 -1.86019 4.73817
lowerneck -17.7102 -3.62721 -12.8433
upperneck 20.0953 -4.78018 14.0616
head 9.96299 -1.6646 6.53439
rclavicle 3.70733e-014 -3.57812e-015
rhumerus -47.3242 12.922 -84.4623
rradius 33.3718
rwrist -19.8634
rhand -27.6046 -28.6219
rfingers 7.12502
rthumb -1.00402 -58.5993
lclavicle 3.70733e-014 -3.57812e-015
lhumerus -19.2055 -24.178 87.5545
lradius 34.2814
lwrist 11.294
lhand -13.0576 -25.3515
lfingers 7.12502
lthumb 13.0377 4.22108
rfemur -39.4837 -0.0934165 16.3458
rtibia 52.0895
rfoot -19.9312 -11.3149
rtoes -19.8952
lfemur -10.8159 1.86262 -28.2511
ltibia 24.5737
lfoot -20.0357 0.885353
ltoes -3.37513
231
root 9.8782 17.0039 11.0376 7.76498 4.80149 3.57592
lowerback -2.77958 -3.09561 -6.06043
upperback -0.155547 -3.96307 1.57052
thorax 1.92098 -2.04213 4.82976
lowerneck -17.2523 -3.47622 -12.9827
upperneck 19.8314 -4.60483 14.2684
head 9.76375 -1.58773 6.64625
rclavicle -1.44119e-015 -7.55382e-015
rhumerus -48.1637 12.8085 -84.2619
rradius 33.2522
rwrist -19.6397
rhand -32.3885 -25.2193
rfingers 7.12502
rthumb -5.62388 -55.1246
lclavicle -1.44119e-015 -7.55382e-015
lhumerus -18.2207 -24.4197 86.9992
lradius 34.2982
lwrist 10.6146
lhand -13.1429 -25.4152
lfingers 7.12502
lthumb 12.9555 4.16257
rfemur -39.5629 -0.00225746 15.9854
rtibia 50.0058
rfoot -19.9024 -11.3496
rtoes -20.3396
lfemur -9.06843 2.20301 -28.2522
ltibia 23.3013
lfoot -20.0588 0.30325
ltoes -3.95191
